<?xml version="1.0" standalone="no"?>
<!DOCTYPE svg PUBLIC "-//W3C//DTD SVG 20010904//EN"
 "http://www.w3.org/TR/2001/REC-SVG-20010904/DTD/svg10.dtd">
<svg version="1.0" xmlns="http://www.w3.org/2000/svg"
 width="300.000000pt" height="300.000000pt" viewBox="0 0 300.000000 300.000000"
 preserveAspectRatio="xMidYMid meet">
<metadata>
Created by potrace 1.10, written by Peter Selinger 2001-2011
</metadata>
<g transform="translate(0.000000,300.000000) scale(0.100000,-0.100000)"
fill="#ffffff" stroke="none">
<path d="M1374 1939 c-18 -19 -19 -39 -19 -251 0 -281 -7 -268 145 -268 152 0
145 -13 145 268 0 288 8 272 -145 272 -96 0 -109 -2 -126 -21z m234 -5 c12 -8
22 -22 22 -30 0 -11 -23 -14 -130 -14 -107 0 -130 3 -130 14 0 31 42 46 130
46 61 0 92 -4 108 -16z m22 -234 l0 -170 -130 0 -130 0 0 170 0 170 130 0 130
0 0 -170z m0 -209 c0 -41 -25 -51 -130 -51 -105 0 -130 10 -130 51 0 18 8 19
130 19 122 0 130 -1 130 -19z"/>
<path d="M1480 1920 c0 -5 9 -10 20 -10 11 0 20 5 20 10 0 6 -9 10 -20 10 -11
0 -20 -4 -20 -10z"/>
<path d="M1440 1741 c-5 -11 -10 -24 -10 -30 0 -15 60 -81 74 -81 7 0 24 13
39 28 48 50 28 126 -24 94 -11 -7 -20 -8 -24 -2 -10 17 -44 11 -55 -9z m54
-17 c6 -15 8 -15 26 1 20 18 40 13 40 -10 0 -7 -12 -28 -26 -45 l-27 -31 -23
22 c-26 25 -39 54 -29 69 10 15 32 12 39 -6z"/>
<path d="M1850 1455 l0 -25 355 0 355 0 0 25 0 25 -355 0 -355 0 0 -25z"/>
<path d="M440 1445 l0 -25 355 0 355 0 0 25 0 25 -355 0 -355 0 0 -25z"/>
<path d="M1250 1303 c0 -5 -7 -55 -15 -113 -22 -157 -24 -147 39 -149 49 -1
57 2 80 30 35 41 37 120 5 143 -23 16 -43 12 -73 -13 -18 -15 -18 -14 -11 47
6 53 5 62 -9 62 -9 0 -16 -3 -16 -7z m90 -118 c16 -20 7 -81 -17 -107 -51 -57
-88 31 -38 91 30 35 37 37 55 16z"/>
<path d="M1626 1288 c-7 -31 -26 -197 -26 -225 0 -13 6 -23 14 -23 10 0 17 27
25 98 7 53 15 114 18 135 4 30 2 37 -11 37 -8 0 -18 -10 -20 -22z"/>
<path d="M2296 1294 c-3 -9 -6 -31 -6 -50 0 -31 -2 -33 -23 -25 -38 15 -81
-10 -100 -58 -20 -48 -21 -74 -7 -102 13 -23 57 -25 88 -3 20 14 22 14 22 0 0
-9 6 -16 14 -16 10 0 17 27 25 98 7 53 15 114 18 135 4 29 2 37 -10 37 -8 0
-18 -7 -21 -16z m-32 -100 c20 -8 20 -46 1 -84 -16 -32 -50 -55 -65 -45 -18
11 -11 81 11 109 22 27 28 30 53 20z"/>
<path d="M525 1268 c-6 -41 -25 -198 -25 -215 0 -17 116 -17 150 0 41 21 70
74 70 129 0 27 -5 58 -10 69 -17 30 -64 49 -124 49 -54 0 -55 0 -61 -32z m126
-9 c46 -24 48 -116 4 -163 -19 -21 -33 -26 -71 -26 l-47 0 7 63 c15 139 15
137 53 137 19 0 43 -5 54 -11z"/>
<path d="M823 1222 c-12 -2 -34 -17 -48 -33 -30 -36 -35 -108 -9 -133 22 -22
87 -21 107 2 24 26 11 33 -24 14 -34 -20 -62 -9 -67 27 -3 15 2 21 16 21 10 0
33 5 51 11 76 27 54 104 -26 91z m37 -41 c0 -17 -42 -41 -72 -41 -10 0 10 42
26 52 21 14 46 8 46 -11z"/>
<path d="M1493 1218 c-47 -12 -83 -60 -83 -112 0 -23 5 -47 12 -54 17 -17 58
-15 80 5 17 15 18 15 18 0 0 -10 6 -17 14 -17 9 0 16 18 20 58 4 31 9 71 12
88 5 27 2 32 -18 36 -12 2 -37 1 -55 -4z m37 -48 c0 -34 -20 -79 -44 -99 -22
-18 -46 2 -46 39 0 34 44 90 71 90 15 0 19 -7 19 -30z"/>
<path d="M1770 1222 c-8 -2 -24 -12 -34 -21 -11 -9 -16 -11 -13 -4 9 14 -11
29 -23 17 -4 -5 -11 -46 -15 -91 -6 -70 -5 -83 8 -83 10 0 17 16 22 56 5 40
14 64 31 81 37 37 48 21 40 -63 -5 -59 -3 -74 8 -74 17 0 26 22 26 61 0 55 43
111 71 93 9 -5 5 -74 -7 -131 -3 -18 0 -23 15 -23 16 0 19 10 25 70 11 110 -8
137 -70 101 -19 -11 -34 -16 -34 -11 0 14 -33 28 -50 22z"/>
<path d="M923 1199 c4 -13 14 -54 24 -91 12 -47 22 -68 33 -68 10 0 32 33 58
85 23 47 42 87 42 90 0 3 -7 5 -15 5 -10 0 -28 -27 -47 -67 -32 -72 -34 -72
-52 12 -8 35 -17 51 -30 53 -15 3 -18 0 -13 -19z"/>
<path d="M1975 1168 c-4 -29 -5 -69 -3 -88 3 -30 7 -35 31 -38 16 -2 39 4 53
13 21 14 24 14 24 0 0 -8 6 -15 14 -15 10 0 16 20 21 68 3 37 9 77 12 90 4 17
1 22 -16 22 -17 0 -21 -6 -21 -35 0 -47 -23 -101 -49 -115 -36 -19 -43 -4 -36
76 6 63 5 74 -8 74 -11 0 -17 -15 -22 -52z"/>
<path d="M2382 1190 c-54 -54 -51 -150 6 -150 15 0 38 7 50 16 17 12 22 12 20
2 -2 -7 4 -13 12 -13 15 0 27 56 29 138 l1 37 -44 0 c-36 0 -50 -6 -74 -30z
m88 -2 c0 -30 -23 -91 -40 -108 -49 -49 -73 42 -25 94 25 27 65 35 65 14z"/>
<path d="M1100 1145 c0 -11 11 -15 39 -15 25 0 41 5 45 15 4 12 -4 15 -39 15
-33 0 -45 -4 -45 -15z"/>
</g>
</svg>
